<svg id="LOGO_LOS_NIETO" data-name="LOGO LOS NIETO" xmlns="http://www.w3.org/2000/svg" viewBox="0 0 159 82"><defs><style>.cls-1,.cls-2{fill:#fff;}.cls-1{fill-rule:evenodd;}</style></defs><title>SVG</title><path class="cls-1" d="M56,55.54a30.63,30.63,0,0,0-2.12-5.65c.18,0-10.27,13.87-21.9,21.38a.66.66,0,0,1-.95,0C21.53,63.94,17.21,58.94,9,49.73c-.68,1.88-1.9,3.86-2,5.65-2.21,1.46-3.49,4.23-2.71,8a6.4,6.4,0,0,1,4.14-4.8l.05.07a9,9,0,0,0-1.8,7.76s.48-2.62,1.85-3.26c.41-.19-1.72,3.55,1.16,6a3.22,3.22,0,0,1,.78-3.34c.26-.2.13.07.15.45.11,2.38.47,2.77,2.07,4.65.21-1,.12-2.83,1.29-3.77.22-.18.57-.34.41.12a3.5,3.5,0,0,0-.13,3.08c1.14-1.48,2.23-1.53,3.6-1.73a143.69,143.69,0,0,0,11.66,10c1.7,1.3,2.29,1.17,4.14-.09a95,95,0,0,0,12-9.81,3.89,3.89,0,0,1,2.89,1.63,3.47,3.47,0,0,0-.12-3.08c-.17-.46.18-.3.41-.12,1.17.94,1.08,2.79,1.29,3.77,1.6-1.88,2-2.27,2.07-4.65,0-.38-.11-.65.15-.45a3.22,3.22,0,0,1,.77,3.34c2.89-2.42.75-6.16,1.17-6,1.37.64,1.85,3.26,1.85,3.26a9,9,0,0,0-1.76-7.71l.07-.09a6.39,6.39,0,0,1,4.08,4.77C59.23,59.74,58.07,57,56,55.54ZM9.33,57.05H9.22c-.05-1.74-.16-2.76-.16-4.53h.32ZM11,58.83h-.21c-.11-1.74-.31-2.76-.31-4.53h.63Zm1.53,1.71h-.1c-.06-1.74-.16-2.75-.16-4.52h.32Zm1.59,1.75h-.2c-.11-1.74-.32-2.75-.32-4.52h.64Zm1.6,1.89h-.21c-.11-1.74-.32-2.76-.32-4.52h.64Zm1.39,1.66H17c-.05-1.75-.15-2.76-.15-4.53h.31Zm1.61,1.28h-.21c-.11-1.74-.31-2.76-.31-4.52h.63ZM20,68.78h-.1c-.05-1.74-.16-2.75-.16-4.52h.32Zm1.89,1.64h-.2c-.11-1.74-.32-2.75-.32-4.52H22Zm1.72,1.45h-.11c-.05-1.74-.15-2.75-.15-4.52h.31Zm1.88,1.59h-.2c-.11-1.74-.32-2.76-.32-4.53h.63Zm1.68,1.44h-.1c-.06-1.74-.16-2.76-.16-4.52h.32Zm2.13,1.61h-.21c-.11-1.74-.32-2.75-.32-4.52h.64Zm2.29,1.64h-.1l-.05-4.53h.31C31.79,75.39,31.69,76.41,31.63,78.15Zm2.44-1.62h-.2L33.76,72h.63C34.39,73.78,34.18,74.79,34.07,76.53Zm2-1.64H36l-.05-4.52h.32C36.23,72.14,36.12,73.15,36.07,74.89Zm1.84-1.33H37.7L37.59,69h.63C38.22,70.81,38,71.82,37.91,73.56ZM39.75,72h-.11l0-4.52h.31C39.9,69.22,39.8,70.24,39.75,72Zm1.7-1.34h-.2l-.12-4.52h.64C41.77,67.89,41.56,68.9,41.45,70.64ZM43.12,69H43L43,64.48h.32C43.28,66.25,43.18,67.26,43.12,69Zm1.54-1.32h-.21l-.11-4.52H45C45,64.92,44.77,65.94,44.66,67.68Zm1.56-1.63h-.1l-.06-4.52h.32C46.38,63.3,46.28,64.31,46.22,66.05Zm1.5-1.54h-.21L47.4,60H48C48,61.76,47.83,62.77,47.72,64.51Zm1.7-1.94h-.2l-.11-4.52h.63C49.74,59.81,49.53,60.83,49.42,62.57ZM51,60.71h-.1l-.06-4.53h.32C51.13,58,51,59,51,60.71Zm1.58-1.49h-.21l-.11-4.53h.64C52.87,56.46,52.66,57.48,52.55,59.22Zm1.29-1.84h-.1l-.06-4.52H54C54,54.62,53.9,55.64,53.84,57.38Z"/><path class="cls-1" d="M20.08,22.2s3.5-7.18,11.55-8.08,9.69,5.21,12,3.22c1-.82.54-3.28.28-4.45-.75,1.56-1.46,1.57-1.45-.33,0-1.75.44-4.55-1.86-5.4.51.62.84,3.65.17,3.85C39.44,11.41,40,5.65,35,3.7c.49.63,1.91,3.83,1.25,4.42-1,.93-3.76-3.94-9.1-2.17,1.34.43,4.11,1.54,3.77,3.06S23,6,21.27,12.79c1.49-1.44,6.34-1.58,6.38-.2,0,1.67-7.83.45-7.57,9.61Z"/><path class="cls-1" d="M50.56,44.4c-5.83,7.31-10.34,13.44-18.31,18.83,0,0-.59.63-1.7-.27-7.33-5.88-9.4-8.65-17.35-17.09-.33-.36-1.35-1.35-.89-1.81,0,0,1.15-1.77,1.95-2.89,1.4,2.23,3.56,1.17,5.53-.12.67-.45,1.28-1,1.92-1.44a4.9,4.9,0,0,1,1.48-.82,2.5,2.5,0,0,1,2.11.54A19.2,19.2,0,0,1,29.47,44l.74,1,1-.81c1.12-.91,1-3.69,1-5,0-.22,0-.43,0-.66a6.49,6.49,0,0,1,1.53,4.94L32.92,49c2.53-4,4.24-5.36,3.64-10.44-.05-.37-.11-.8-.2-1.25a1.23,1.23,0,0,0,.87-.44,1,1,0,0,0,.15-.24c.09-.18,1,.68,1.51.89a3.65,3.65,0,0,0,2.44.06h.05l0,0a5,5,0,0,0,1.32-.73l1.68.53-.22.61c-.93,2.57-6.22,9.72-10.06,12.6,3.56-1.25,10.7-9.64,11.71-12.87,2.54,2.11,3.49,4.83,4.7,6.75Z"/><path class="cls-1" d="M11.39,45.4c5.67,6.49,11.86,14.13,19,19.35l.73.54a.77.77,0,0,0,.71,0c9-5.35,12.24-10.55,19.64-19.43C52.57,47,53.11,48,52.89,48.35c-4,5.45-14,16.51-20.2,20.17a2.2,2.2,0,0,1-2.57,0C21.53,62.19,16.91,56,9.9,48c-.51-.59,1.32-2.75,1.49-2.57Z"/><path class="cls-1" d="M38.58,24.82C38,28.45,46.07,34.2,40.92,36.2c-4.35,1.33-5.16-8.89-2.34-11.38Z"/><path class="cls-1" d="M38.91,22.23a21.07,21.07,0,0,0,1.81-1.77c.55-.67,1.11-1.57,1.54-1.51a7.11,7.11,0,0,0,1.54-.17c2,0,3.07,3.19,3,4.84C43.12,20.23,42.14,25,40,25.37s.62-4.26,3.75-3.47l.68.18c-1.53-1.4-3.52.17-5.55.15Z"/><path class="cls-1" d="M35,19.6c-2.19-1.42.16-2.81,1.73-1.61.19.14,2.67.9,3.83.15a3.6,3.6,0,0,1-1.38-.74C31,10.06,21,19.72,19.82,29.7c-.68,5.51.23,7.56-4.37,11.23,6,1.08,6.53-9.7,15,2.34.84-.69.58-5.64.19-7.44a7.85,7.85,0,0,1,4.23,7.81c1.33-2.1.32-8.54-1.18-9.92.49-.09,2.48,1,2.62,2.35,0,.12,1.26-6.48-2.73-7.27s-7.52-5.07-3.5-8.24c-3.48,6,4.19,8.61,6.48,5.29A2.33,2.33,0,0,0,37,24.63h0A12.56,12.56,0,0,1,39,20.45h0c.23-.32.47-.67.72-1C38.43,18.79,36.76,20.74,35,19.6Z"/><path class="cls-1" d="M125.42,26.35a3.65,3.65,0,0,0,.76,1.1,1.34,1.34,0,0,0,.91.45c.34,0,.53,0,.59-.15a1.71,1.71,0,0,1-.29.64,2.46,2.46,0,0,1-.45.41,1.71,1.71,0,0,1-.49.24,1.61,1.61,0,0,1-.46.07,2.23,2.23,0,0,1-2.2-1.16l1.63-1.6Z"/><path class="cls-1" d="M153.92,37.63a12.87,12.87,0,0,0-.56-2.59A12.28,12.28,0,0,0,152,32.27a9.62,9.62,0,0,0-2.42-2.54,7.45,7.45,0,0,0-2,1.71,11.16,11.16,0,0,0-1.39,2.16,10.48,10.48,0,0,0-.8,2.3,10.24,10.24,0,0,0-.25,2.16c0,.65,0,1.37.07,2.14a10,10,0,0,0,.49,2.45,11.46,11.46,0,0,0,1.33,2.71,13.41,13.41,0,0,0,2.6,2.87,15.93,15.93,0,0,0,2.08-2.39,15.49,15.49,0,0,0,1.35-2.32,10,10,0,0,0,.73-2.1,8.56,8.56,0,0,0,.21-1.78Q154,38.83,153.92,37.63Zm-2.2,5.6a.56.56,0,0,1-.56.42,1.09,1.09,0,0,1-.7-.31,5.21,5.21,0,0,1-.78-.86,11.64,11.64,0,0,1-.8-1.33,16.74,16.74,0,0,1-.76-1.69,12.14,12.14,0,0,1-.61-2.06,8.83,8.83,0,0,1-.19-1.72,3.1,3.1,0,0,1,.15-1.06.61.61,0,0,1,.56-.43,1.22,1.22,0,0,1,.69.31,4.66,4.66,0,0,1,.78.88,12.13,12.13,0,0,1,.81,1.34,14.23,14.23,0,0,1,.73,1.67,11.48,11.48,0,0,1,.83,3.8A3.05,3.05,0,0,1,151.72,43.23Z"/><path class="cls-1" d="M74.94,30.51c-.49-1.19-.92-2.18-1.27-3s-.64-1.19-.84-1.19a.41.41,0,0,0-.43.28,1.42,1.42,0,0,0-.1.49V43.24a3,3,0,0,1-.36,1.37,4.31,4.31,0,0,1-1,1.25,3.53,3.53,0,0,0,2-.55c.58-.37,1.18-.77,1.8-1.22a14.48,14.48,0,0,1,2.1-1.22,6.78,6.78,0,0,1,2.88-.55v5.33H66.29c.26-.38.48-.74.67-1.07a6.55,6.55,0,0,0,.46-1,5.78,5.78,0,0,0,.27-1.07,7.89,7.89,0,0,0,.09-1.25V29.17a3.05,3.05,0,0,0-.36-1.56l-.51-.85a4,4,0,0,0,.61-.22l1.21-.46c.47-.18,1-.37,1.57-.56s1.14-.39,1.7-.55,1.08-.31,1.58-.42a5.75,5.75,0,0,1,1.22-.16,2.51,2.51,0,0,1,1.39.41,5.33,5.33,0,0,1,1.19,1,7,7,0,0,1,.93,1.39,13.56,13.56,0,0,1,.62,1.41l-4,1.87Z"/><path class="cls-1" d="M89.82,37.73a12.27,12.27,0,0,0-.57-2.59,12.45,12.45,0,0,0-1.32-2.77,9.67,9.67,0,0,0-2.43-2.54,7.26,7.26,0,0,0-2,1.71,10.82,10.82,0,0,0-1.38,2.16,10,10,0,0,0-.81,2.3,10.86,10.86,0,0,0-.25,2.16c0,.65,0,1.37.08,2.14a10,10,0,0,0,.49,2.45A11.41,11.41,0,0,0,83,45.46a13.69,13.69,0,0,0,2.6,2.87,15.47,15.47,0,0,0,2.09-2.39A17.44,17.44,0,0,0,89,43.62a10,10,0,0,0,.73-2.1,8.65,8.65,0,0,0,.21-1.79C89.94,39.2,89.9,38.53,89.82,37.73Zm-2.19,5.44a.56.56,0,0,1-.56.42,1.1,1.1,0,0,1-.7-.32,4.5,4.5,0,0,1-.78-.86,12.37,12.37,0,0,1-.8-1.32,16.94,16.94,0,0,1-.76-1.7,12,12,0,0,1-.61-2,9,9,0,0,1-.19-1.73,3.07,3.07,0,0,1,.15-1,.6.6,0,0,1,.56-.43,1.15,1.15,0,0,1,.69.31,4.37,4.37,0,0,1,.78.88,10.51,10.51,0,0,1,.81,1.34A14.07,14.07,0,0,1,87,38.32a11.58,11.58,0,0,1,.83,3.81A3.13,3.13,0,0,1,87.63,43.17Z"/><path class="cls-1" d="M91.1,44.08l2.41-2.38,2.85,3.09.39-.42a.38.38,0,0,0,.09-.13.85.85,0,0,0,0-.28,1.94,1.94,0,0,0,0-.24.55.55,0,0,0-.13-.27l-4.49-5.56a4.43,4.43,0,0,1-.66-1.06,2.5,2.5,0,0,1-.24-1,3.84,3.84,0,0,1,.11-.91,1.37,1.37,0,0,1,.34-.67L96,29.8l3.1,3.6-2.32,2.5-2-2.32a.64.64,0,0,1-.2.2l-.17.15-.13.12a.26.26,0,0,0-.09.18.35.35,0,0,0,.12.24l4.43,5.44a7.44,7.44,0,0,1,.61.91,2.67,2.67,0,0,1,.34,1.38,2.91,2.91,0,0,1-.26,1.31,3.64,3.64,0,0,1-.69.92l-3.84,3.66-3.77-4Z"/><path class="cls-1" d="M108.88,47.65V27.09a2.73,2.73,0,0,0-.35-1.41,10.2,10.2,0,0,0-.72-1h5.77v3l3.31-3.84a17.52,17.52,0,0,1,2.49,2.72,13.4,13.4,0,0,1,1.55,2.71A10.94,10.94,0,0,1,121.7,32a19,19,0,0,1,.21,2.85,15.94,15.94,0,0,1-.22,2.72,17.17,17.17,0,0,1-.64,2.54,26,26,0,0,1-1,2.53c-.38.85-.8,1.74-1.26,2.68h1.07a1.45,1.45,0,0,0,.8-.27,1.54,1.54,0,0,1,.84-.27v2.86h-5.77c.53-1.09,1-2.08,1.29-2.95a18.48,18.48,0,0,0,.76-2.5,14.81,14.81,0,0,0,.35-2.32c.06-.75.09-1.55.09-2.41a8.84,8.84,0,0,0-.43-2.66,14.22,14.22,0,0,0-1.05-2.54,9,9,0,0,0-1.33-1.91,1.89,1.89,0,0,0-1.26-.74.85.85,0,0,0-.57.18V47.65Z"/><path class="cls-1" d="M123.91,33.87a2,2,0,0,0-.29-1,6.37,6.37,0,0,0-.52-.79l2.47-2.29,2,2.41V47.65h-3.68V33.87Z"/><path class="cls-1" d="M137,44.76a3,3,0,0,1-.67-.1,3.32,3.32,0,0,1-1-.51A7.48,7.48,0,0,1,134,43a13.18,13.18,0,0,1-1.52-2.13l4.67-5.26-3.48-6.1c-.12.08-.43.34-.94.78a10.74,10.74,0,0,0-1.6,1.81,12.77,12.77,0,0,0-1.52,2.84,10.46,10.46,0,0,0-.67,3.85,11.3,11.3,0,0,0,.67,4,12.47,12.47,0,0,0,1.52,2.88,9.13,9.13,0,0,0,1.62,1.79c.52.41.85.67,1,.77l3.45-3.51A.51.51,0,0,1,137,44.76Zm-5.17-5.5a5.17,5.17,0,0,1-.36-.75,3.33,3.33,0,0,1-.24-.77,4.79,4.79,0,0,1-.09-1,3.8,3.8,0,0,1,.11-.89c.07-.3.15-.58.24-.85a5.38,5.38,0,0,1,.25-.67,2.86,2.86,0,0,1,.18-.36l1.1,1.79a3.66,3.66,0,0,1,.32.55,1.55,1.55,0,0,1,.18.73,1,1,0,0,1-.21.61,3.71,3.71,0,0,1-.29.37Z"/><path class="cls-1" d="M139,46.43V34.08a1.24,1.24,0,0,0-.36-.88c-.24-.24-.45-.47-.62-.66l4.64-4.64v3.65H144v1.79h-1.42v11a1.52,1.52,0,0,0,.4,1c.26.31.5.57.7.79L141,48.63l-2-2.2Z"/><polygon class="cls-2" points="138.14 56.87 135.58 54.31 133.46 56.44 132.91 55.89 135.58 53.22 138.14 55.77 140.12 53.8 140.66 54.34 138.14 56.87"/><polygon class="cls-2" points="81.64 56.87 78.98 54.2 79.52 53.65 81.64 55.77 84.2 53.22 86.72 55.74 86.18 56.29 84.2 54.31 81.64 56.87"/><path class="cls-2" d="M93,57.34V53a.2.2,0,0,1,.22-.22h1.6A1.27,1.27,0,0,1,96.2,54a1,1,0,0,1-.58,1,1.14,1.14,0,0,1,.84,1.15A1.35,1.35,0,0,1,95,57.56H93.18A.2.2,0,0,1,93,57.34Zm1.74-3.8h-.78v1.14h.78a.57.57,0,0,0,0-1.14Zm.2,1.92h-1v1.29h1a.65.65,0,0,0,0-1.29Z"/><path class="cls-2" d="M102.38,54.29a1.43,1.43,0,0,1-1,1.45l1,1.55c.09.15,0,.27-.15.27h-.58a.28.28,0,0,1-.26-.15l-1-1.57H100v1.5a.2.2,0,0,1-.22.22h-.54a.2.2,0,0,1-.22-.22V53a.2.2,0,0,1,.22-.22h1.49A1.52,1.52,0,0,1,102.38,54.29Zm-2.41.77h.65a.76.76,0,1,0,0-1.52H100Z"/><path class="cls-2" d="M107.4,52.91,109,57.3c.06.16,0,.26-.18.26h-.57a.24.24,0,0,1-.25-.18l-.3-.91h-1.75l-.3.91a.24.24,0,0,1-.24.18h-.58c-.16,0-.24-.1-.18-.26l1.57-4.39a.25.25,0,0,1,.25-.18h.71A.24.24,0,0,1,107.4,52.91Zm-1.22,2.76h1.24l-.62-1.89Z"/><path class="cls-2" d="M111.72,56.36a1.55,1.55,0,0,0,1.08.44c.47,0,.81-.23.81-.59s-.21-.58-1-.75c-1-.2-1.48-.7-1.48-1.42a1.44,1.44,0,0,1,1.6-1.39,1.58,1.58,0,0,1,1.69,1.22c0,.15,0,.24-.19.24h-.55a.26.26,0,0,1-.25-.19.65.65,0,0,0-.65-.44c-.38,0-.66.2-.66.49s.24.55.92.71c1.08.24,1.53.75,1.53,1.5s-.67,1.46-1.77,1.46a2,2,0,0,1-1.56-.83.2.2,0,0,1,0-.31l.13-.14A.2.2,0,0,1,111.72,56.36Z"/><path class="cls-2" d="M119.48,52.91l1.58,4.39c0,.16,0,.26-.18.26h-.58a.24.24,0,0,1-.25-.18l-.3-.91H118l-.3.91a.24.24,0,0,1-.25.18h-.58c-.16,0-.23-.1-.18-.26l1.58-4.39a.24.24,0,0,1,.25-.18h.7A.24.24,0,0,1,119.48,52.91Zm-1.22,2.76h1.24l-.62-1.89Z"/><path class="cls-2" d="M123.8,56.36a1.57,1.57,0,0,0,1.09.44c.46,0,.8-.23.8-.59s-.2-.58-1-.75c-1-.2-1.48-.7-1.48-1.42a1.45,1.45,0,0,1,1.61-1.39,1.59,1.59,0,0,1,1.69,1.22.18.18,0,0,1-.2.24h-.55a.26.26,0,0,1-.25-.19.65.65,0,0,0-.65-.44c-.38,0-.66.2-.66.49s.24.55.92.71c1.08.24,1.54.75,1.54,1.5s-.67,1.46-1.77,1.46a2,2,0,0,1-1.57-.83.22.22,0,0,1,0-.31l.13-.14A.2.2,0,0,1,123.8,56.36Z"/></svg>